<svg width="24" height="24" viewBox="0 0 24 24" fill="none" xmlns="http://www.w3.org/2000/svg">
<path d="M2.07217 3.55259L6.81922 7.90263L11.0485 2.47937C11.167 2.32775 11.3167 2.20592 11.4866 2.12293C11.6565 2.03995 11.8422 1.99795 12.0299 2.00008C12.2175 2.0022 12.4023 2.04839 12.5704 2.13519C12.7386 2.222 12.8858 2.3472 13.001 2.50146L17.0369 7.90133L21.9374 3.48892C22.1299 3.316 22.3684 3.20842 22.6212 3.18058C22.874 3.15273 23.1289 3.20596 23.3518 3.33313C23.5747 3.46031 23.755 3.65536 23.8686 3.89218C23.9821 4.129 24.0235 4.39629 23.9872 4.65829L22.1158 18.1021H1.91373L0.0136598 4.71936C-0.024083 4.4559 0.0168346 4.18674 0.130871 3.94831C0.244907 3.70989 0.426551 3.51372 0.6512 3.38639C0.875849 3.25906 1.13265 3.20671 1.38682 3.23644C1.64098 3.26617 1.88024 3.37653 2.07217 3.55259ZM2.01104 19.4014H21.9724V20.7007C21.9724 21.0453 21.8409 21.3758 21.6069 21.6194C21.373 21.8631 21.0557 22 20.7248 22H3.25862C2.92774 22 2.61041 21.8631 2.37645 21.6194C2.14248 21.3758 2.01104 21.0453 2.01104 20.7007V19.4014Z" fill="url(#paint0_linear_601_4)"/>
<defs>
<linearGradient id="paint0_linear_601_4" x1="12" y1="2" x2="12" y2="22" gradientUnits="userSpaceOnUse">
<stop stop-color="#FFE600"/>
<stop offset="1" stop-color="#FF9900"/>
</linearGradient>
</defs>
</svg>
